<?xml version="1.0" encoding="utf-8"?>
<!-- Generator: Adobe Illustrator 16.0.0, SVG Export Plug-In . SVG Version: 6.00 Build 0)  -->
<!DOCTYPE svg PUBLIC "-//W3C//DTD SVG 1.1//EN" "http://www.w3.org/Graphics/SVG/1.1/DTD/svg11.dtd">
<svg version="1.1" xmlns="http://www.w3.org/2000/svg" xmlns:xlink="http://www.w3.org/1999/xlink" x="0px" y="0px" width="110px"
	 height="110px" viewBox="0 0 110 110" style="enable-background:new 0 0 110 110;" xml:space="preserve">
<g id="bg" style="display:none;">
	<rect x="-192.5" y="-214" style="display:inline;fill:#28B9EF;" width="841.9" height="595.3"/>
</g>
<g id="black">
</g>
<g id="white">
</g>
<g id="text">
</g>
<g id="icon">
	<g>
		<path style="fill:#FCEA10;" d="M77,7.5c0.3,0.2,0.5,0.4,0.7,0.6c9.3,13.2,17.1,28,17.1,47.6c0,19.7-8.1,34.5-17.1,46.9
			c-0.3,0.3-0.4,0.6-0.8,0.9c-0.4,0.3-1.2,0.2-1.2,0.2H67c0,0-0.3,0-0.4-0.1c-0.1-0.2,0-0.3,0.1-0.4c3.5-7,7-14.1,9.6-22.1
			c2.5-7.6,5-15.9,5.2-25.6c0.3-10.6-1.2-17-3.3-23.8C75,21.5,70.5,13.4,67,8.1c-0.3-0.4-0.3-0.5-0.2-0.7c0.2-0.2,0.4-0.2,0.4-0.2
			h8.6C75.9,7.3,76.7,7.3,77,7.5z"/>
		<path style="fill:#F9BC12;" d="M70.1,25.3c-0.6-1.5-7.2-16.2-7.4-16.6c-0.1-0.2-0.2-0.1-0.3-0.1c-0.1,0.1-0.2,0.2-0.1,0.6
			c0.6,5.4,0.8,13.3-0.9,22.3c-1.1,5.9-2.5,11.3-7,19.3c-4,7.2-9.2,12.5-14.1,17.3c-5.1,5-10.6,9-16,12.9C24.1,81,24,81.1,24,81.2
			c0,0.1,0.3,0.3,0.3,0.3l6.6,3.5c0,0,0.6,0.3,1,0.3c0.4-0.1,0.6-0.2,0.9-0.3c11.8-5.9,23.7-13.8,31.6-28.7
			c4.6-8.7,7.1-17.3,6.9-25.6C71.2,28.4,70.5,26.6,70.1,25.3z"/>
		<path style="fill:#F9BC12;" d="M57.8,24.2c0.1-1.3,0.4-14.3,0.4-14.6c0-0.2-0.1-0.2-0.2-0.2c-0.1,0-0.2,0.1-0.3,0.4
			c-1.4,4.1-4.1,9.9-8.4,15.9c-2.9,3.9-5.8,7.4-11.8,11.6C32,41,26.3,43,21.1,44.8c-5.5,1.8-10.8,2.9-16.2,3.8c-0.1,0-0.2,0-0.3,0.1
			c0,0.1,0.1,0.3,0.1,0.3l3.6,4.8c0,0,0.3,0.5,0.6,0.6c0.3,0.1,0.5,0.1,0.8,0.1c10.6-0.1,22.1-1.7,33-9.8
			c6.4-4.7,11.2-10.1,13.9-16.2C57.5,26.8,57.7,25.3,57.8,24.2z"/>
	</g>
	<rect id="_x3C_Slice_x3E__1_" style="fill:none;" width="110" height="110"/>
</g>
</svg>
